<svg width="24" height="25" viewBox="0 0 24 25" fill="none" xmlns="http://www.w3.org/2000/svg">
<path d="M15 11C15 11.445 14.868 11.88 14.6208 12.25C14.3736 12.62 14.0222 12.9084 13.611 13.0787C13.1999 13.249 12.7475 13.2936 12.311 13.2068C11.8746 13.12 11.4737 12.9057 11.159 12.591C10.8443 12.2763 10.63 11.8754 10.5432 11.439C10.4564 11.0025 10.501 10.5501 10.6713 10.139C10.8416 9.72783 11.13 9.37643 11.5 9.12919C11.87 8.88196 12.305 8.75 12.75 8.75C13.3467 8.75 13.919 8.98705 14.341 9.40901C14.7629 9.83097 15 10.4033 15 11ZM21 4.25V20.75C21 21.1478 20.842 21.5294 20.5607 21.8107C20.2794 22.092 19.8978 22.25 19.5 22.25H6C5.60218 22.25 5.22064 22.092 4.93934 21.8107C4.65804 21.5294 4.5 21.1478 4.5 20.75V18.5H3C2.80109 18.5 2.61032 18.421 2.46967 18.2803C2.32902 18.1397 2.25 17.9489 2.25 17.75C2.25 17.5511 2.32902 17.3603 2.46967 17.2197C2.61032 17.079 2.80109 17 3 17H4.5V13.25H3C2.80109 13.25 2.61032 13.171 2.46967 13.0303C2.32902 12.8897 2.25 12.6989 2.25 12.5C2.25 12.3011 2.32902 12.1103 2.46967 11.9697C2.61032 11.829 2.80109 11.75 3 11.75H4.5V8H3C2.80109 8 2.61032 7.92098 2.46967 7.78033C2.32902 7.63968 2.25 7.44891 2.25 7.25C2.25 7.05109 2.32902 6.86032 2.46967 6.71967C2.61032 6.57902 2.80109 6.5 3 6.5H4.5V4.25C4.5 3.85218 4.65804 3.47064 4.93934 3.18934C5.22064 2.90804 5.60218 2.75 6 2.75H19.5C19.8978 2.75 20.2794 2.90804 20.5607 3.18934C20.842 3.47064 21 3.85218 21 4.25ZM17.85 15.8C17.1859 14.9096 16.3003 14.2086 15.2812 13.7666C15.8397 13.2567 16.231 12.5899 16.4037 11.8537C16.5764 11.1175 16.5225 10.3462 16.2491 9.64121C15.9756 8.93617 15.4954 8.33028 14.8715 7.90304C14.2476 7.4758 13.509 7.24718 12.7528 7.24718C11.9966 7.24718 11.2581 7.4758 10.6341 7.90304C10.0102 8.33028 9.52999 8.93617 9.25655 9.64121C8.98311 10.3462 8.92922 11.1175 9.10194 11.8537C9.27466 12.5899 9.66592 13.2567 10.2244 13.7666C9.20328 14.2077 8.31566 14.9088 7.65 15.8C7.59091 15.8788 7.54791 15.9685 7.52346 16.0639C7.49902 16.1593 7.49361 16.2586 7.50754 16.3561C7.52147 16.4536 7.55446 16.5474 7.60464 16.6321C7.65482 16.7169 7.72121 16.7909 7.8 16.85C7.87879 16.9091 7.96845 16.9521 8.06386 16.9765C8.15927 17.001 8.25856 17.0064 8.35607 16.9925C8.45357 16.9785 8.54737 16.9455 8.63212 16.8954C8.71687 16.8452 8.79091 16.7788 8.85 16.7C9.30409 16.0945 9.89291 15.6031 10.5698 15.2647C11.2468 14.9262 11.9932 14.75 12.75 14.75C13.5068 14.75 14.2532 14.9262 14.9302 15.2647C15.6071 15.6031 16.1959 16.0945 16.65 16.7C16.7693 16.8591 16.947 16.9643 17.1439 16.9925C17.3408 17.0206 17.5409 16.9693 17.7 16.85C17.8591 16.7307 17.9643 16.553 17.9925 16.3561C18.0206 16.1592 17.9693 15.9591 17.85 15.8Z" fill="#057AEC"/>
</svg>
