<svg width="24" height="25" viewBox="0 0 24 25" fill="none" xmlns="http://www.w3.org/2000/svg">
<path d="M21.6499 21.125C21.5841 21.239 21.4894 21.3337 21.3753 21.3995C21.2613 21.4654 21.1319 21.5 21.0002 21.5H3.00021C2.86862 21.4999 2.73938 21.4651 2.62548 21.3992C2.51157 21.3333 2.417 21.2386 2.35127 21.1247C2.28553 21.0107 2.25094 20.8814 2.25098 20.7498C2.25101 20.6182 2.28566 20.4889 2.35146 20.375C3.77927 17.9065 5.97958 16.1365 8.54739 15.2975C7.27724 14.5414 6.29041 13.3892 5.73845 12.0179C5.18648 10.6467 5.09991 9.13211 5.49203 7.70688C5.88414 6.28165 6.73326 5.02454 7.90898 4.1286C9.0847 3.23266 10.522 2.74744 12.0002 2.74744C13.4784 2.74744 14.9157 3.23266 16.0914 4.1286C17.2672 5.02454 18.1163 6.28165 18.5084 7.70688C18.9005 9.13211 18.8139 10.6467 18.262 12.0179C17.71 13.3892 16.7232 14.5414 15.453 15.2975C18.0208 16.1365 20.2211 17.9065 21.649 20.375C21.7149 20.4889 21.7497 20.6182 21.7499 20.7499C21.7501 20.8815 21.7156 21.0109 21.6499 21.125Z" fill="#057AEC"/>
</svg>
