<svg width="16" height="17" viewBox="0 0 16 17" fill="none" xmlns="http://www.w3.org/2000/svg">
<g clip-path="url(#clip0_46_396)">
<path d="M8 1.90937C10.1375 1.90937 10.3906 1.91875 11.2313 1.95625C12.0125 1.99062 12.4344 2.12188 12.7156 2.23125C13.0875 2.375 13.3563 2.55 13.6344 2.82812C13.9156 3.10938 14.0875 3.375 14.2313 3.74688C14.3406 4.02813 14.4719 4.45312 14.5063 5.23125C14.5438 6.075 14.5531 6.32813 14.5531 8.4625C14.5531 10.6 14.5438 10.8531 14.5063 11.6938C14.4719 12.475 14.3406 12.8969 14.2313 13.1781C14.0875 13.55 13.9125 13.8188 13.6344 14.0969C13.3531 14.3781 13.0875 14.55 12.7156 14.6938C12.4344 14.8031 12.0094 14.9344 11.2313 14.9688C10.3875 15.0063 10.1344 15.0156 8 15.0156C5.8625 15.0156 5.60938 15.0063 4.76875 14.9688C3.9875 14.9344 3.56563 14.8031 3.28438 14.6938C2.9125 14.55 2.64375 14.375 2.36563 14.0969C2.08438 13.8156 1.9125 13.55 1.76875 13.1781C1.65938 12.8969 1.52813 12.4719 1.49375 11.6938C1.45625 10.85 1.44688 10.5969 1.44688 8.4625C1.44688 6.325 1.45625 6.07188 1.49375 5.23125C1.52813 4.45 1.65938 4.02813 1.76875 3.74688C1.9125 3.375 2.0875 3.10625 2.36563 2.82812C2.64688 2.54688 2.9125 2.375 3.28438 2.23125C3.56563 2.12188 3.99063 1.99062 4.76875 1.95625C5.60938 1.91875 5.8625 1.90937 8 1.90937ZM8 0.46875C5.82813 0.46875 5.55625 0.478125 4.70313 0.515625C3.85313 0.553125 3.26875 0.690625 2.7625 0.8875C2.23438 1.09375 1.7875 1.36563 1.34375 1.8125C0.896875 2.25625 0.625 2.70313 0.41875 3.22813C0.221875 3.7375 0.084375 4.31875 0.046875 5.16875C0.009375 6.025 0 6.29688 0 8.46875C0 10.6406 0.009375 10.9125 0.046875 11.7656C0.084375 12.6156 0.221875 13.2 0.41875 13.7063C0.625 14.2344 0.896875 14.6813 1.34375 15.125C1.7875 15.5688 2.23438 15.8438 2.75938 16.0469C3.26875 16.2438 3.85 16.3813 4.7 16.4187C5.55313 16.4563 5.825 16.4656 7.99688 16.4656C10.1688 16.4656 10.4406 16.4563 11.2938 16.4187C12.1438 16.3813 12.7281 16.2438 13.2344 16.0469C13.7594 15.8438 14.2063 15.5688 14.65 15.125C15.0938 14.6813 15.3688 14.2344 15.5719 13.7094C15.7688 13.2 15.9063 12.6188 15.9438 11.7688C15.9813 10.9156 15.9906 10.6438 15.9906 8.47188C15.9906 6.3 15.9813 6.02813 15.9438 5.175C15.9063 4.325 15.7688 3.74063 15.5719 3.23438C15.375 2.70312 15.1031 2.25625 14.6563 1.8125C14.2125 1.36875 13.7656 1.09375 13.2406 0.890625C12.7313 0.69375 12.15 0.55625 11.3 0.51875C10.4438 0.478125 10.1719 0.46875 8 0.46875Z" fill="#FAFAFB"/>
<path d="M8 4.35938C5.73125 4.35938 3.89062 6.2 3.89062 8.46875C3.89062 10.7375 5.73125 12.5781 8 12.5781C10.2688 12.5781 12.1094 10.7375 12.1094 8.46875C12.1094 6.2 10.2688 4.35938 8 4.35938ZM8 11.1344C6.52813 11.1344 5.33437 9.94063 5.33437 8.46875C5.33437 6.99688 6.52813 5.80312 8 5.80312C9.47188 5.80312 10.6656 6.99688 10.6656 8.46875C10.6656 9.94063 9.47188 11.1344 8 11.1344Z" fill="#FAFAFB"/>
<path d="M13.2312 4.19668C13.2312 4.72793 12.8 5.15606 12.2719 5.15606C11.7406 5.15606 11.3125 4.72481 11.3125 4.19668C11.3125 3.66543 11.7438 3.2373 12.2719 3.2373C12.8 3.2373 13.2312 3.66856 13.2312 4.19668Z" fill="#FAFAFB"/>
</g>
<defs>
<clipPath id="clip0_46_396">
<rect width="16" height="16" fill="white" transform="translate(0 0.46875)"/>
</clipPath>
</defs>
</svg>
