<svg width="16" height="17" viewBox="0 0 16 17" fill="none" xmlns="http://www.w3.org/2000/svg">
<g clip-path="url(#clip0_46_395)">
<path d="M8 0.46875C3.58176 0.46875 0 4.05051 0 8.46875C0 12.2204 2.58304 15.3686 6.06752 16.2332V10.9136H4.41792V8.46875H6.06752V7.41531C6.06752 4.69243 7.29984 3.43035 9.97312 3.43035C10.48 3.43035 11.3546 3.52987 11.7123 3.62907V5.84507C11.5235 5.82523 11.1955 5.81531 10.7882 5.81531C9.47648 5.81531 8.9696 6.31227 8.9696 7.60411V8.46875H11.5827L11.1338 10.9136H8.9696V16.4102C12.9309 15.9318 16.0003 12.559 16.0003 8.46875C16 4.05051 12.4182 0.46875 8 0.46875Z" fill="#FAFAFB"/>
</g>
<defs>
<clipPath id="clip0_46_395">
<rect width="16" height="16" fill="white" transform="translate(0 0.46875)"/>
</clipPath>
</defs>
</svg>
