<svg width="20" height="21" viewBox="0 0 20 21" fill="none" xmlns="http://www.w3.org/2000/svg">
<path d="M19.8008 6.46875C19.8008 6.46875 19.6055 5.08984 19.0039 4.48438C18.2422 3.6875 17.3906 3.68359 17 3.63672C14.2031 3.43359 10.0039 3.43359 10.0039 3.43359H9.99609C9.99609 3.43359 5.79688 3.43359 3 3.63672C2.60938 3.68359 1.75781 3.6875 0.996094 4.48438C0.394531 5.08984 0.203125 6.46875 0.203125 6.46875C0.203125 6.46875 0 8.08984 0 9.70703V11.2227C0 12.8398 0.199219 14.4609 0.199219 14.4609C0.199219 14.4609 0.394531 15.8398 0.992187 16.4453C1.75391 17.2422 2.75391 17.2148 3.19922 17.3008C4.80078 17.4531 10 17.5 10 17.5C10 17.5 14.2031 17.4922 17 17.293C17.3906 17.2461 18.2422 17.2422 19.0039 16.4453C19.6055 15.8398 19.8008 14.4609 19.8008 14.4609C19.8008 14.4609 20 12.8438 20 11.2227V9.70703C20 8.08984 19.8008 6.46875 19.8008 6.46875ZM7.93359 13.0625V7.44141L13.3359 10.2617L7.93359 13.0625Z" fill="#FAFAFB"/>
</svg>
