<svg width="39" height="40" viewBox="0 0 39 40" fill="none" xmlns="http://www.w3.org/2000/svg">
<path d="M18.8987 27.5187C19.0798 27.6222 19.2848 27.6766 19.4934 27.6766C19.702 27.6766 19.9069 27.6222 20.088 27.5187C20.455 27.3075 29.0752 22.2762 29.0752 13.2965C28.9999 10.8061 27.9578 8.44275 26.1699 6.70739C24.382 4.97202 21.9886 4.00097 19.497 4C17.0054 3.99903 14.6113 4.96821 12.822 6.70217C11.0327 8.43614 9.98887 10.7986 9.91162 13.2891C9.91162 22.2762 18.5363 27.3 18.8987 27.5187ZM19.4979 9.69421C20.2089 9.69421 20.9039 9.90504 21.4951 10.3001C22.0862 10.6951 22.547 11.2565 22.8191 11.9134C23.0912 12.5702 23.1624 13.293 23.0237 13.9904C22.885 14.6877 22.5426 15.3283 22.0398 15.831C21.5371 16.3337 20.8965 16.6761 20.1992 16.8148C19.5019 16.9535 18.7791 16.8823 18.1222 16.6103C17.4653 16.3382 16.9039 15.8774 16.5089 15.2862C16.1139 14.6951 15.903 14.0001 15.903 13.2891C15.903 12.3356 16.2818 11.4213 16.9559 10.7471C17.6301 10.073 18.5445 9.69421 19.4979 9.69421ZM36.2738 28.8667C36.2738 33.537 27.6297 36.0564 19.4979 36.0564C11.366 36.0564 2.72192 33.537 2.72192 28.8667C2.72192 26.6814 4.70209 24.7461 8.29843 23.419C8.59336 23.3216 8.91459 23.3425 9.19442 23.4773C9.47424 23.6121 9.69078 23.8503 9.79839 24.1417C9.906 24.433 9.89627 24.7548 9.77126 25.0391C9.64624 25.3235 9.4157 25.5482 9.12824 25.6658C6.65529 26.581 5.11849 27.8063 5.11849 28.8667C5.11849 30.8679 10.5887 33.6599 19.4979 33.6599C28.4071 33.6599 33.8773 30.8679 33.8773 28.8667C33.8773 27.8063 32.3405 26.581 29.8675 25.6673C29.5801 25.5497 29.3495 25.325 29.2245 25.0406C29.0995 24.7563 29.0898 24.4345 29.1974 24.1432C29.305 23.8518 29.5215 23.6136 29.8014 23.4788C30.0812 23.344 30.4024 23.3231 30.6973 23.4205C34.2937 24.7461 36.2738 26.6814 36.2738 28.8667Z" fill="white"/>
</svg>
