<svg width="37" height="34" viewBox="0 0 37 34" fill="none" xmlns="http://www.w3.org/2000/svg">
<rect x="0.910645" width="36" height="34" rx="8" fill="white"/>
<path d="M22.5 15.2556C22.5 16.294 22.1921 17.309 21.6152 18.1724C21.0384 19.0357 20.2184 19.7086 19.2591 20.106C18.2998 20.5034 17.2442 20.6073 16.2258 20.4048C15.2074 20.2022 14.2719 19.7022 13.5377 18.9679C12.8035 18.2337 12.3035 17.2983 12.1009 16.2799C11.8983 15.2615 12.0023 14.2059 12.3997 13.2465C12.797 12.2872 13.4699 11.4673 14.3333 10.8904C15.1966 10.3135 16.2117 10.0056 17.25 10.0056C18.6424 10.0056 19.9778 10.5588 20.9623 11.5433C21.9469 12.5279 22.5 13.8632 22.5 15.2556ZM28.2807 26.2863C28.211 26.356 28.1283 26.4113 28.0372 26.4491C27.9462 26.4868 27.8486 26.5062 27.75 26.5062C27.6515 26.5062 27.5539 26.4868 27.4628 26.4491C27.3718 26.4113 27.2891 26.356 27.2194 26.2863L22.5263 21.5922C20.8942 22.95 18.8015 23.6263 16.6835 23.4805C14.5654 23.3347 12.5851 22.378 11.1545 20.8094C9.72384 19.2408 8.95297 17.1811 9.00222 15.0586C9.05148 12.9361 9.91707 10.9143 11.4189 9.41379C12.9208 7.91324 14.9434 7.04944 17.0659 7.00206C19.1884 6.95468 21.2475 7.72737 22.8148 9.1594C24.3822 10.5914 25.3371 12.5726 25.481 14.6907C25.6249 16.8089 24.9468 18.901 23.5875 20.5319L28.2807 25.225C28.3504 25.2947 28.4057 25.3774 28.4434 25.4684C28.4812 25.5595 28.5006 25.6571 28.5006 25.7556C28.5006 25.8542 28.4812 25.9518 28.4434 26.0428C28.4057 26.1339 28.3504 26.2166 28.2807 26.2863ZM17.25 22.0056C18.5851 22.0056 19.8901 21.6098 21.0001 20.8681C22.1102 20.1264 22.9753 19.0721 23.4862 17.8387C23.9971 16.6053 24.1308 15.2481 23.8703 13.9388C23.6099 12.6294 22.967 11.4267 22.023 10.4827C21.079 9.53866 19.8763 8.89578 18.5669 8.63533C17.2575 8.37488 15.9003 8.50855 14.6669 9.01945C13.4335 9.53034 12.3793 10.3955 11.6376 11.5055C10.8959 12.6156 10.5 13.9206 10.5 15.2556C10.502 17.0452 11.2138 18.761 12.4793 20.0264C13.7447 21.2919 15.4604 22.0036 17.25 22.0056Z" fill="#FF671F"/>
</svg>
