<svg width="17" height="21" viewBox="0 0 17 21" fill="none" xmlns="http://www.w3.org/2000/svg">
<path d="M8.33496 0C6.14769 0.00248131 4.05071 0.872472 2.50407 2.41911C0.957433 3.96575 0.0874422 6.06273 0.0849609 8.25C0.0849609 15.3094 7.58496 20.6409 7.90465 20.8641C8.03075 20.9524 8.18099 20.9998 8.33496 20.9998C8.48893 20.9998 8.63917 20.9524 8.76527 20.8641C9.08496 20.6409 16.585 15.3094 16.585 8.25C16.5825 6.06273 15.7125 3.96575 14.1659 2.41911C12.6192 0.872472 10.5222 0.00248131 8.33496 0ZM8.33496 5.25C8.9283 5.25 9.50832 5.42595 10.0017 5.75559C10.495 6.08524 10.8795 6.55377 11.1066 7.10195C11.3337 7.65013 11.3931 8.25333 11.2773 8.83527C11.1616 9.41721 10.8758 9.95176 10.4563 10.3713C10.0367 10.7909 9.50217 11.0766 8.92023 11.1924C8.33829 11.3081 7.73509 11.2487 7.18691 11.0216C6.63873 10.7946 6.1702 10.4101 5.84055 9.91671C5.51091 9.42336 5.33496 8.84334 5.33496 8.25C5.33496 7.45435 5.65103 6.69129 6.21364 6.12868C6.77625 5.56607 7.53931 5.25 8.33496 5.25Z" fill="#FF671F"/>
</svg>
