<svg width="15" height="15" viewBox="0 0 15 15" fill="none" xmlns="http://www.w3.org/2000/svg">
<path d="M14.1104 13.0852L10.6258 9.60057C11.5754 8.43919 12.0423 6.95726 11.9299 5.4613C11.8175 3.96534 11.1344 2.5698 10.0219 1.56335C8.90943 0.556907 7.45268 0.0165469 5.95297 0.0540443C4.45326 0.0915418 3.02534 0.704028 1.96455 1.76481C0.903765 2.8256 0.291279 4.25353 0.253782 5.75323C0.216284 7.25294 0.756645 8.7097 1.76309 9.82217C2.76954 10.9346 4.16507 11.6177 5.66103 11.7301C7.157 11.8425 8.63893 11.3756 9.80031 10.426L13.2849 13.9106C13.395 14.017 13.5425 14.0758 13.6955 14.0745C13.8486 14.0732 13.995 14.0118 14.1033 13.9035C14.2115 13.7953 14.2729 13.6489 14.2742 13.4958C14.2756 13.3427 14.2167 13.1953 14.1104 13.0852ZM6.10847 10.579C5.18478 10.579 4.28183 10.3051 3.51381 9.79191C2.74579 9.27874 2.14719 8.54934 1.79371 7.69596C1.44023 6.84258 1.34774 5.90355 1.52794 4.99761C1.70815 4.09167 2.15295 3.2595 2.80609 2.60636C3.45924 1.95321 4.2914 1.50841 5.19735 1.3282C6.10329 1.148 7.04232 1.24049 7.8957 1.59397C8.74908 1.94745 9.47848 2.54605 9.99165 3.31407C10.5048 4.08209 10.7787 4.98504 10.7787 5.90873C10.7773 7.14693 10.2849 8.33403 9.40931 9.20957C8.53376 10.0851 7.34667 10.5776 6.10847 10.579Z" fill="#009240"/>
</svg>
