<svg width="27" height="27" viewBox="0 0 27 27" fill="none" xmlns="http://www.w3.org/2000/svg">
<rect width="27" height="27" rx="6.75" fill="white"/>
<path d="M20.3897 11.1678C20.2433 11.0019 20.0632 10.869 19.8615 10.778C19.6598 10.687 19.441 10.64 19.2197 10.64H15.5797V9.6C15.5797 8.91044 15.3058 8.24912 14.8182 7.76152C14.3306 7.27393 13.6693 7 12.9797 7C12.8831 6.99993 12.7884 7.02677 12.7062 7.07752C12.624 7.12827 12.5576 7.20091 12.5143 7.2873L10.0586 12.2H7.25973C6.9839 12.2 6.71937 12.3096 6.52434 12.5046C6.3293 12.6996 6.21973 12.9642 6.21973 13.24V18.96C6.21973 19.2358 6.3293 19.5004 6.52434 19.6954C6.71937 19.8904 6.9839 20 7.25973 20H18.4397C18.8198 20.0001 19.1868 19.8615 19.4719 19.6102C19.757 19.3588 19.9405 19.0121 19.988 18.635L20.768 12.395C20.7957 12.1753 20.7762 11.9523 20.711 11.7407C20.6458 11.5291 20.5363 11.3338 20.3897 11.1678ZM7.25973 13.24H9.85973V18.96H7.25973V13.24Z" fill="black"/>
</svg>
