<svg width="15" height="15" viewBox="0 0 15 15" fill="none" xmlns="http://www.w3.org/2000/svg">
<g clip-path="url(#clip0_266_697)">
<path d="M7.13453 7.19787C7.8273 7.19787 8.50451 6.99244 9.08053 6.60756C9.65654 6.22268 10.1055 5.67563 10.3706 5.0356C10.6357 4.39556 10.7051 3.69129 10.5699 3.01183C10.4348 2.33237 10.1012 1.70825 9.61131 1.21839C9.12145 0.728531 8.49733 0.394932 7.81788 0.259779C7.13842 0.124627 6.43414 0.193992 5.79411 0.459103C5.15407 0.724214 4.60703 1.17316 4.22215 1.74918C3.83727 2.32519 3.63184 3.00241 3.63184 3.69517C3.63276 4.62386 4.00209 5.51425 4.65878 6.17093C5.31546 6.82761 6.20584 7.19694 7.13453 7.19787ZM7.13453 1.36004C7.59638 1.36004 8.04785 1.49699 8.43186 1.75358C8.81587 2.01017 9.11517 2.37487 9.29191 2.80156C9.46865 3.22825 9.5149 3.69776 9.4248 4.15074C9.33469 4.60371 9.1123 5.01979 8.78572 5.34636C8.45915 5.67294 8.04307 5.89533 7.5901 5.98544C7.13712 6.07554 6.66761 6.02929 6.24092 5.85255C5.81423 5.67581 5.44953 5.37651 5.19294 4.9925C4.93635 4.60849 4.7994 4.15702 4.7994 3.69517C4.7994 3.07586 5.04542 2.48191 5.48335 2.04399C5.92127 1.60606 6.51522 1.36004 7.13453 1.36004Z" fill="#191919"/>
<path d="M7.13491 8.36526C5.74192 8.36681 4.40643 8.92086 3.42144 9.90585C2.43645 10.8908 1.8824 12.2263 1.88086 13.6193C1.88086 13.7741 1.94236 13.9226 2.05185 14.0321C2.16133 14.1416 2.30981 14.2031 2.46464 14.2031C2.61947 14.2031 2.76796 14.1416 2.87744 14.0321C2.98692 13.9226 3.04843 13.7741 3.04843 13.6193C3.04843 12.5355 3.47896 11.4961 4.24533 10.7297C5.01169 9.96337 6.0511 9.53283 7.13491 9.53283C8.21871 9.53283 9.25812 9.96337 10.0245 10.7297C10.7908 11.4961 11.2214 12.5355 11.2214 13.6193C11.2214 13.7741 11.2829 13.9226 11.3924 14.0321C11.5019 14.1416 11.6503 14.2031 11.8052 14.2031C11.96 14.2031 12.1085 14.1416 12.218 14.0321C12.3274 13.9226 12.389 13.7741 12.389 13.6193C12.3874 12.2263 11.8334 10.8908 10.8484 9.90585C9.86338 8.92086 8.52789 8.36681 7.13491 8.36526Z" fill="#191919"/>
</g>
<defs>
<clipPath id="clip0_266_697">
<rect x="0.12793" y="0.192535" width="14.0108" height="14.0108" rx="7.00539" fill="white"/>
</clipPath>
</defs>
</svg>
