<svg width="28" height="26" viewBox="0 0 28 26" fill="none" xmlns="http://www.w3.org/2000/svg">
<path d="M13.5312 18.5078C13.6729 18.5888 13.8333 18.6314 13.9965 18.6314C14.1597 18.6314 14.32 18.5888 14.4617 18.5078C14.7488 18.3426 21.493 14.4063 21.493 7.38088C21.4341 5.4324 20.6188 3.58342 19.22 2.22572C17.8212 0.868027 15.9487 0.108306 13.9993 0.107545C12.05 0.106783 10.1769 0.865039 8.777 2.22164C7.37712 3.57824 6.56044 5.42659 6.5 7.37502C6.5 14.4063 13.2477 18.3367 13.5312 18.5078ZM14 4.56252C14.5563 4.56252 15.1 4.72747 15.5625 5.03651C16.0251 5.34555 16.3855 5.78481 16.5984 6.29872C16.8113 6.81264 16.867 7.37814 16.7585 7.92371C16.6499 8.46928 16.3821 8.97042 15.9887 9.36376C15.5954 9.75709 15.0943 10.025 14.5487 10.1335C14.0031 10.242 13.4376 10.1863 12.9237 9.97343C12.4098 9.76056 11.9705 9.40007 11.6615 8.93756C11.3525 8.47505 11.1875 7.93128 11.1875 7.37502C11.1875 6.6291 11.4838 5.91373 12.0113 5.38628C12.5387 4.85884 13.2541 4.56252 14 4.56252ZM27.125 19.5625C27.125 23.2164 20.3621 25.1875 14 25.1875C7.63789 25.1875 0.875 23.2164 0.875 19.5625C0.875 17.8528 2.42422 16.3387 5.23789 15.3004C5.46863 15.2242 5.71996 15.2405 5.93888 15.346C6.1578 15.4515 6.32722 15.6378 6.41141 15.8658C6.4956 16.0937 6.48799 16.3455 6.39018 16.5679C6.29237 16.7904 6.11201 16.9662 5.88711 17.0582C3.95234 17.7742 2.75 18.7328 2.75 19.5625C2.75 21.1281 7.02969 23.3125 14 23.3125C20.9703 23.3125 25.25 21.1281 25.25 19.5625C25.25 18.7328 24.0477 17.7742 22.1129 17.0594C21.888 16.9673 21.7076 16.7916 21.6098 16.5691C21.512 16.3467 21.5044 16.0949 21.5886 15.867C21.6728 15.639 21.8422 15.4526 22.0611 15.3472C22.28 15.2417 22.5314 15.2254 22.7621 15.3016C25.5758 16.3387 27.125 17.8528 27.125 19.5625Z" fill="#1C55E0"/>
</svg>
