<svg width="25" height="25" viewBox="0 0 25 25" fill="none" xmlns="http://www.w3.org/2000/svg">
<path d="M24.1734 18.5172C23.9645 20.1051 23.1847 21.5627 21.9796 22.6177C20.7745 23.6726 19.2266 24.2529 17.625 24.25C8.32032 24.25 0.750011 16.6797 0.750011 7.37501C0.74714 5.77339 1.32738 4.2255 2.38235 3.02043C3.43733 1.81536 4.8949 1.03552 6.48282 0.82657C6.88437 0.777539 7.29101 0.859689 7.64203 1.06076C7.99305 1.26182 8.26963 1.57102 8.43048 1.94219L10.9055 7.46759V7.48165C11.0286 7.76577 11.0795 8.07598 11.0535 8.38455C11.0275 8.69312 10.9256 8.99046 10.7567 9.25001C10.7356 9.28165 10.7133 9.31094 10.6899 9.34024L8.25001 12.2324C9.12774 14.016 10.9934 15.8652 12.8004 16.7453L15.6527 14.3184C15.6808 14.2948 15.7101 14.2729 15.7406 14.2527C16 14.0798 16.2983 13.9742 16.6087 13.9455C16.9191 13.9169 17.2318 13.9661 17.5184 14.0887L17.5336 14.0957L23.0543 16.5695C23.4261 16.7298 23.7361 17.0062 23.9378 17.3572C24.1395 17.7083 24.2222 18.1152 24.1734 18.5172Z" fill="#1C55E0"/>
</svg>
