<svg width="26" height="20" viewBox="0 0 26 20" fill="none" xmlns="http://www.w3.org/2000/svg">
<path d="M24.25 0.625H1.75C1.50136 0.625 1.2629 0.723772 1.08709 0.899588C0.911272 1.0754 0.8125 1.31386 0.8125 1.5625V17.5C0.8125 17.9973 1.01004 18.4742 1.36167 18.8258C1.71331 19.1775 2.19022 19.375 2.6875 19.375H23.3125C23.8098 19.375 24.2867 19.1775 24.6383 18.8258C24.99 18.4742 25.1875 17.9973 25.1875 17.5V1.5625C25.1875 1.31386 25.0887 1.0754 24.9129 0.899588C24.7371 0.723772 24.4986 0.625 24.25 0.625ZM9.56758 10L2.6875 16.3059V3.69414L9.56758 10ZM10.9551 11.2715L12.3613 12.5664C12.5343 12.7252 12.7605 12.8133 12.9953 12.8133C13.2301 12.8133 13.4563 12.7252 13.6293 12.5664L15.0355 11.2715L21.8324 17.5H4.16055L10.9551 11.2715ZM16.4324 10L23.3125 3.69297V16.307L16.4324 10Z" fill="#1C55E0"/>
</svg>
